<svg xmlns="http://www.w3.org/2000/svg" xmlns:xlink="http://www.w3.org/1999/xlink" id="Ebene_1" x="0px" y="0px" viewBox="0 0 593.8 167.1" style="enable-background:new 0 0 593.8 167.1;" xml:space="preserve"><style type="text/css">	.st0{fill:#011A28;}	.st1{fill:#3ED1F2;}	.st2{fill:#0A3DA6;}	.st3{fill:#197ED8;}	.st4{fill-rule:evenodd;clip-rule:evenodd;fill:#011A28;}	.st5{fill:none;}</style><path class="st0" d="M201.2,53.6v22.6h-3.9V19.9h13.6c5.8,0,10.2,1.3,13.3,4c3.1,2.7,4.6,6.6,4.6,11.8c0.2,4.8-1.7,9.5-5.1,12.9  c-3.4,3.3-8.2,5-14.4,5L201.2,53.6z M201.2,23.4v26.6h8c5.1,0,8.9-1.2,11.6-3.6s4-5.9,4-10.3c0-8.5-4.9-12.7-14.6-12.7L201.2,23.4z"></path><path class="st0" d="M266.9,76.2l-7.5-16.5c-1.5-3.4-3.1-5.7-4.6-6.9c-1.7-1.2-3.7-1.8-5.8-1.7h-7v25.1h-3.9V19.9h15.6  c5,0,8.9,1.3,11.7,4c2.9,2.8,4.4,6.6,4.3,10.6c0.1,3.7-1.1,7.3-3.5,10.2c-2.6,2.9-6,4.8-9.8,5.3v0.2c2.2,0.9,4.4,3.6,6.5,8.1l8.4,18  L266.9,76.2z M242,23.5v24.1h9.7c4.3,0,7.7-1.1,10.2-3.4c2.6-2.4,4-5.8,3.8-9.3c0.2-3.2-1.1-6.3-3.4-8.4c-2.3-2-5.5-3.1-9.8-3H242z"></path><path class="st0" d="M304,77.2c-8,0-14.4-2.6-19-7.9s-7.1-12.2-7.1-20.6c0-9,2.4-16.2,7.3-21.6s11.5-8.1,19.8-8.1  c7.6,0,13.8,2.6,18.5,7.8s7.1,12,7.1,20.5c0,9.3-2.4,16.7-7.2,22S312,77.2,304,77.2z M304.4,22.5c-6.2-0.2-12.1,2.4-16.2,7.1  c-4.2,4.7-6.4,11-6.4,18.6s2,13.9,6,18.5c4,4.6,9.3,6.9,16,6.9c7,0,12.5-2.3,16.5-6.8s6.1-10.9,6.1-19c0-8-2-14.2-6-18.6  S311.1,22.5,304.4,22.5L304.4,22.5z"></path><path class="st0" d="M383.8,72.3c-5.5,3.2-11.7,4.9-18,4.9c-7.7,0-13.9-2.6-18.6-7.8s-7.1-12.1-7.1-20.5c0-8.5,2.6-15.7,7.7-21.4  c5.1-5.7,11.9-8.6,20.5-8.6c5,0,9.9,1,14.4,3v4.2c-4.7-2.4-9.8-3.6-15-3.7c-7.1,0-12.8,2.4-17.1,7.3s-6.4,11-6.4,18.5  c0,7.9,2,14.1,6.1,18.6c4,4.5,9.5,6.7,16.4,6.7c4.7,0.1,9.3-1,13.4-3.3V51.8h-13.3v-3.5h17.2V72.3z"></path><path class="st0" d="M425.7,76.2l-7.5-16.5c-1.5-3.4-3.1-5.7-4.6-6.9c-1.7-1.2-3.7-1.8-5.8-1.8h-7v25.1h-3.9V19.9h15.6  c5,0,8.9,1.3,11.7,4c2.9,2.8,4.4,6.6,4.3,10.6c0.1,3.7-1.1,7.3-3.4,10.2c-2.6,2.9-6,4.7-9.8,5.3v0.2c2.2,0.9,4.4,3.6,6.5,8.1l8.4,18  L425.7,76.2z M400.7,23.4v24.1h9.7c4.3,0,7.7-1.1,10.2-3.4c2.6-2.4,4-5.8,3.8-9.3c0.2-3.2-1.1-6.3-3.4-8.4c-2.3-2-5.5-3.1-9.8-3  L400.7,23.4z"></path><path class="st0" d="M441.5,76.2V19.9h26.3v3.6h-22.4v22.6h20.8v3.5h-20.8v23.1h23.7v3.5H441.5z"></path><path class="st0" d="M479,74.2v-4.4c3.6,2.4,7.9,3.8,12.3,3.8c4.4,0,7.7-0.9,10-2.7c2.3-1.9,3.6-4.7,3.4-7.6c0.1-2.5-0.7-5-2.3-6.9  c-1.5-1.7-4.9-4.1-10-7c-5.7-3.3-9.3-6.1-10.9-8.3c-1.5-2.3-2.3-5-2.3-7.8c0-3.9,1.7-7.6,4.6-10.1c3.1-2.8,7.2-4.2,12.4-4.2  c3.4,0,6.8,0.6,10.1,1.7v4.1c-3.3-1.5-6.9-2.3-10.6-2.2c-3.8,0-6.9,1-9.1,2.9c-2.2,1.8-3.4,4.5-3.4,7.4c-0.1,2.5,0.7,5,2.3,6.9  c1.5,1.7,4.8,4,9.9,7c5.3,3,8.8,5.7,10.5,8c1.7,2.3,2.7,5.1,2.6,8c0.1,4-1.5,7.9-4.5,10.6c-3,2.7-7.2,4.1-12.7,4.1  c-2.3,0-4.5-0.3-6.7-0.9C482.7,76,480.8,75.2,479,74.2z"></path><path class="st0" d="M516,74.2v-4.4c3.6,2.4,7.9,3.8,12.3,3.8c4.4,0,7.7-0.9,10-2.7c2.3-1.9,3.6-4.7,3.4-7.6c0.1-2.5-0.7-5-2.3-6.9  c-1.5-1.7-4.9-4.1-10-7c-5.7-3.3-9.3-6.1-10.8-8.3c-1.5-2.3-2.3-5-2.3-7.8c0-3.9,1.7-7.7,4.7-10.2c3.1-2.8,7.2-4.2,12.4-4.2  c3.4,0,6.8,0.6,10.1,1.7v4.1c-3.3-1.5-6.9-2.3-10.6-2.2c-3.8,0-6.9,1-9.1,2.9c-2.2,1.8-3.4,4.5-3.4,7.4c-0.1,2.5,0.7,5,2.3,6.9  c1.5,1.7,4.8,4,9.9,7c5.3,3,8.8,5.7,10.5,8c1.7,2.3,2.7,5.1,2.6,8c0.1,4-1.5,7.9-4.5,10.6c-3,2.7-7.2,4.1-12.7,4.1  c-2.3,0-4.5-0.3-6.7-0.9C519.8,76,517.8,75.2,516,74.2z"></path><path class="st0" d="M261.5,147.2H249v-33.7c0-3.6,0.2-7.7,0.5-12.1h-0.3c-0.4,2.5-1,5-1.8,7.5l-13.2,38.3h-10.4l-13.4-37.9  c-0.7-2.6-1.3-5.2-1.8-7.9h-0.4c0.3,5.5,0.5,10.4,0.5,14.6v31.2h-11.4V90.8h18.6l11.5,33.4c0.9,2.6,1.6,5.3,2,8.1h0.2  c0.6-2.7,1.3-5.5,2.2-8.1l11.5-33.3h18.1V147.2z"></path><path class="st0" d="M323.9,147.2H310l-4-12.5h-20l-4,12.5h-13.7l20.5-56.4h15.1L323.9,147.2z M303.1,124.9l-6-18.9  c-0.5-1.7-0.8-3.4-1-5.1h-0.3c-0.1,1.7-0.5,3.3-1,4.9l-6.1,19.1H303.1z"></path><path class="st0" d="M377.8,147.2h-16l-16.5-24.5c-0.6-1-1.1-2-1.5-3.1h-0.2v27.6h-12.7V90.8h12.7v26.7h0.2c0.3-0.7,0.8-1.8,1.6-3.1  L361,90.8h15.1l-19.6,26.9L377.8,147.2z"></path><path class="st0" d="M418,147.2h-33.8V90.8h32.5v10.3h-19.9v12.5h18.4V124h-18.4v12.9H418V147.2z"></path><path class="st0" d="M474.3,147.2h-14.6l-8.8-14.5c-0.7-1.1-1.3-2.1-1.9-2.9c-0.5-0.8-1.1-1.5-1.8-2.2c-0.6-0.6-1.2-1.1-1.9-1.4  c-0.7-0.3-1.4-0.5-2.2-0.5h-3.4v21.6H427V90.8h20.1c13.7,0,20.5,5.1,20.5,15.3c0,1.9-0.3,3.7-0.9,5.4c-0.6,1.6-1.4,3.2-2.5,4.5  c-1.1,1.4-2.5,2.5-4,3.5c-1.6,1-3.4,1.8-5.2,2.3v0.2c0.9,0.3,1.7,0.7,2.4,1.3c0.8,0.6,1.6,1.3,2.3,2.1c0.7,0.8,1.4,1.6,2.1,2.5  c0.7,0.9,1.3,1.8,1.8,2.7L474.3,147.2z M439.7,100.3V116h5.5c2.4,0.1,4.8-0.7,6.6-2.4c1.6-1.5,2.6-3.7,2.5-5.9  c0-4.9-2.9-7.4-8.8-7.4L439.7,100.3z"></path><rect x="58.3" y="94.8" transform="matrix(0.7071 -0.7071 0.7071 0.7071 -45.3005 100.1851)" class="st1" width="80" height="20"></rect><rect x="37.1" y="73.6" transform="matrix(0.7071 -0.7071 0.7071 0.7071 -36.5212 78.9693)" class="st2" width="80" height="20"></rect><rect x="15.9" y="52.4" transform="matrix(0.7071 -0.7071 0.7071 0.7071 -27.7389 57.7606)" class="st3" width="80" height="20"></rect><polygon class="st4" points="84.1,147.2 112.4,147.2 161.9,97.7 176.1,83.6 161.9,69.4 112.4,19.9 84.1,19.9 147.8,83.6 "></polygon><rect class="st5" width="593.8" height="167.1"></rect><g>	<path d="M494.7,92.2c1.6,1,2.8,2.2,3.7,3.9c0.9,1.6,1.3,3.4,1.3,5.4c0,2-0.4,3.8-1.3,5.4c-0.9,1.6-2.1,2.9-3.7,3.9   c-1.6,1-3.4,1.4-5.3,1.4c-2,0-3.8-0.5-5.3-1.4c-1.6-1-2.8-2.2-3.7-3.9c-0.9-1.6-1.3-3.4-1.3-5.4c0-2,0.4-3.8,1.3-5.4   c0.9-1.6,2.1-2.9,3.7-3.9s3.4-1.4,5.3-1.4C491.3,90.8,493.1,91.3,494.7,92.2z M494.1,109.9c1.4-0.8,2.5-2,3.3-3.5s1.2-3.1,1.2-4.9   s-0.4-3.4-1.2-4.9s-1.9-2.6-3.3-3.5c-1.4-0.8-3-1.3-4.8-1.3s-3.4,0.4-4.8,1.3c-1.4,0.8-2.5,2-3.3,3.5s-1.2,3.1-1.2,4.9   s0.4,3.4,1.2,4.9s1.9,2.6,3.3,3.5c1.4,0.8,3,1.3,4.8,1.3S492.7,110.7,494.1,109.9z M490.2,102.2l3.9,5.3l-1.2,0.1l-3.9-5.3h-2.2   v5.3h-1.1v-12h4.6c1.2,0,2.1,0.3,2.7,0.9c0.7,0.6,1,1.4,1,2.4s-0.3,1.9-1,2.5C492.3,101.9,491.4,102.2,490.2,102.2L490.2,102.2z    M486.7,101.1h3.4c0.8,0,1.5-0.2,2-0.6c0.5-0.4,0.7-1,0.7-1.7c0-1.5-0.9-2.2-2.7-2.2h-3.4V101.1z"></path></g></svg>